<svg xmlns="http://www.w3.org/2000/svg" xmlns:svgjs="http://svgjs.com/svgjs" xmlns:xlink="http://www.w3.org/1999/xlink" width="1920" height="1080" preserveAspectRatio="none" version="1.1" viewBox="0 0 1920 1080"><g fill="none" mask="url(&quot;#SvgjsMask1061&quot;)"><rect width="1920" height="1080" x="0" y="0" fill="#0e2a47"/><path stroke="url(#SvgjsLinearGradient1062)" stroke-linecap="round" stroke-width="6" d="M1782 213L1781 -86" class="Up"/><path stroke="url(#SvgjsLinearGradient1062)" stroke-linecap="round" stroke-width="10" d="M228 21L227 -327" class="Up"/><path stroke="url(#SvgjsLinearGradient1063)" stroke-linecap="round" stroke-width="8" d="M1672 1069L1671 1677" class="Down"/><path stroke="url(#SvgjsLinearGradient1062)" stroke-linecap="round" stroke-width="10" d="M1329 642L1328 -133" class="Up"/><path stroke="url(#SvgjsLinearGradient1063)" stroke-linecap="round" stroke-width="8" d="M944 658L943 83" class="Down"/><path stroke="url(#SvgjsLinearGradient1062)" stroke-linecap="round" stroke-width="8" d="M271 786L270 1563" class="Up"/><path stroke="url(#SvgjsLinearGradient1063)" stroke-linecap="round" stroke-width="6" d="M1622 327L1621 801" class="Down"/><path stroke="url(#SvgjsLinearGradient1062)" stroke-linecap="round" stroke-width="6" d="M972 476L971 1152" class="Up"/><path stroke="url(#SvgjsLinearGradient1063)" stroke-linecap="round" stroke-width="10" d="M1508 557L1507 1213" class="Down"/><path stroke="url(#SvgjsLinearGradient1062)" stroke-linecap="round" stroke-width="10" d="M1378 698L1377 1132" class="Up"/><path stroke="url(#SvgjsLinearGradient1062)" stroke-linecap="round" stroke-width="6" d="M1395 828L1394 70" class="Up"/><path stroke="url(#SvgjsLinearGradient1062)" stroke-linecap="round" stroke-width="8" d="M1142 664L1141 1449" class="Up"/><path stroke="url(#SvgjsLinearGradient1062)" stroke-linecap="round" stroke-width="6" d="M425 337L424 633" class="Up"/><path stroke="url(#SvgjsLinearGradient1063)" stroke-linecap="round" stroke-width="10" d="M586 527L585 1239" class="Down"/><path stroke="url(#SvgjsLinearGradient1063)" stroke-linecap="round" stroke-width="10" d="M315 199L314 898" class="Down"/><path stroke="url(#SvgjsLinearGradient1063)" stroke-linecap="round" stroke-width="6" d="M532 678L531 253" class="Down"/><path stroke="url(#SvgjsLinearGradient1062)" stroke-linecap="round" stroke-width="6" d="M1246 558L1245 847" class="Up"/><path stroke="url(#SvgjsLinearGradient1063)" stroke-linecap="round" stroke-width="6" d="M1909 830L1908 1342" class="Down"/><path stroke="url(#SvgjsLinearGradient1063)" stroke-linecap="round" stroke-width="8" d="M638 775L637 1478" class="Down"/><path stroke="url(#SvgjsLinearGradient1062)" stroke-linecap="round" stroke-width="6" d="M231 574L230 948" class="Up"/><path stroke="url(#SvgjsLinearGradient1062)" stroke-linecap="round" stroke-width="8" d="M1265 156L1264 739" class="Up"/><path stroke="url(#SvgjsLinearGradient1062)" stroke-linecap="round" stroke-width="8" d="M1703 1029L1702 472" class="Up"/><path stroke="url(#SvgjsLinearGradient1062)" stroke-linecap="round" stroke-width="10" d="M43 979L42 449" class="Up"/><path stroke="url(#SvgjsLinearGradient1063)" stroke-linecap="round" stroke-width="6" d="M303 962L302 1382" class="Down"/><path stroke="url(#SvgjsLinearGradient1063)" stroke-linecap="round" stroke-width="10" d="M559 893L558 203" class="Down"/><path stroke="url(#SvgjsLinearGradient1062)" stroke-linecap="round" stroke-width="8" d="M1498 201L1497 -254" class="Up"/><path stroke="url(#SvgjsLinearGradient1062)" stroke-linecap="round" stroke-width="10" d="M1832 1017L1831 1655" class="Up"/><path stroke="url(#SvgjsLinearGradient1063)" stroke-linecap="round" stroke-width="10" d="M853 1019L852 1559" class="Down"/><path stroke="url(#SvgjsLinearGradient1063)" stroke-linecap="round" stroke-width="10" d="M484 16L483 -433" class="Down"/><path stroke="url(#SvgjsLinearGradient1062)" stroke-linecap="round" stroke-width="8" d="M1179 1077L1178 466" class="Up"/><path stroke="url(#SvgjsLinearGradient1063)" stroke-linecap="round" stroke-width="6" d="M284 817L283 1395" class="Down"/><path stroke="url(#SvgjsLinearGradient1063)" stroke-linecap="round" stroke-width="10" d="M866 241L865 -69" class="Down"/><path stroke="url(#SvgjsLinearGradient1063)" stroke-linecap="round" stroke-width="6" d="M1534 482L1533 101" class="Down"/><path stroke="url(#SvgjsLinearGradient1063)" stroke-linecap="round" stroke-width="8" d="M1708 202L1707 538" class="Down"/><path stroke="url(#SvgjsLinearGradient1062)" stroke-linecap="round" stroke-width="6" d="M538 12L537 424" class="Up"/><path stroke="url(#SvgjsLinearGradient1063)" stroke-linecap="round" stroke-width="6" d="M555 82L554 524" class="Down"/><path stroke="url(#SvgjsLinearGradient1062)" stroke-linecap="round" stroke-width="8" d="M890 890L889 1548" class="Up"/><path stroke="url(#SvgjsLinearGradient1063)" stroke-linecap="round" stroke-width="8" d="M696 404L695 -128" class="Down"/><path stroke="url(#SvgjsLinearGradient1063)" stroke-linecap="round" stroke-width="6" d="M1496 230L1495 585" class="Down"/><path stroke="url(#SvgjsLinearGradient1062)" stroke-linecap="round" stroke-width="6" d="M1524 73L1523 -288" class="Up"/><path stroke="url(#SvgjsLinearGradient1062)" stroke-linecap="round" stroke-width="6" d="M77 747L76 349" class="Up"/><path stroke="url(#SvgjsLinearGradient1063)" stroke-linecap="round" stroke-width="10" d="M1689 1058L1688 1489" class="Down"/><path stroke="url(#SvgjsLinearGradient1062)" stroke-linecap="round" stroke-width="6" d="M1355 839L1354 1206" class="Up"/><path stroke="url(#SvgjsLinearGradient1063)" stroke-linecap="round" stroke-width="10" d="M1297 870L1296 191" class="Down"/><path stroke="url(#SvgjsLinearGradient1062)" stroke-linecap="round" stroke-width="10" d="M1554 987L1553 1691" class="Up"/><path stroke="url(#SvgjsLinearGradient1063)" stroke-linecap="round" stroke-width="6" d="M975 655L974 935" class="Down"/><path stroke="url(#SvgjsLinearGradient1063)" stroke-linecap="round" stroke-width="8" d="M1009 10L1008 284" class="Down"/><path stroke="url(#SvgjsLinearGradient1063)" stroke-linecap="round" stroke-width="10" d="M525 543L524 1348" class="Down"/></g><defs><mask id="SvgjsMask1061"><rect width="1920" height="1080" fill="#fff"/></mask><linearGradient id="SvgjsLinearGradient1062" x1="0%" x2="0%" y1="100%" y2="0%"><stop offset="0" stop-color="rgba(28, 83, 142, 0)"/><stop offset="1" stop-color="#1c538e"/></linearGradient><linearGradient id="SvgjsLinearGradient1063" x1="0%" x2="0%" y1="0%" y2="100%"><stop offset="0" stop-color="rgba(28, 83, 142, 0)"/><stop offset="1" stop-color="#1c538e"/></linearGradient></defs></svg>