<svg xmlns="http://www.w3.org/2000/svg" version="1.1" xmlns:xlink="http://www.w3.org/1999/xlink" xmlns:svgjs="http://svgjs.com/svgjs" width="1920" height="1080" preserveAspectRatio="none" viewBox="0 0 1920 1080"><g mask="url(&quot;#SvgjsMask1061&quot;)" fill="none"><rect width="1920" height="1080" x="0" y="0" fill="#0e2a47"></rect><path d="M1782 213L1781 -86" stroke-width="6" stroke="url(#SvgjsLinearGradient1062)" stroke-linecap="round" class="Up"></path><path d="M228 21L227 -327" stroke-width="10" stroke="url(#SvgjsLinearGradient1062)" stroke-linecap="round" class="Up"></path><path d="M1672 1069L1671 1677" stroke-width="8" stroke="url(#SvgjsLinearGradient1063)" stroke-linecap="round" class="Down"></path><path d="M1329 642L1328 -133" stroke-width="10" stroke="url(#SvgjsLinearGradient1062)" stroke-linecap="round" class="Up"></path><path d="M944 658L943 83" stroke-width="8" stroke="url(#SvgjsLinearGradient1063)" stroke-linecap="round" class="Down"></path><path d="M271 786L270 1563" stroke-width="8" stroke="url(#SvgjsLinearGradient1062)" stroke-linecap="round" class="Up"></path><path d="M1622 327L1621 801" stroke-width="6" stroke="url(#SvgjsLinearGradient1063)" stroke-linecap="round" class="Down"></path><path d="M972 476L971 1152" stroke-width="6" stroke="url(#SvgjsLinearGradient1062)" stroke-linecap="round" class="Up"></path><path d="M1508 557L1507 1213" stroke-width="10" stroke="url(#SvgjsLinearGradient1063)" stroke-linecap="round" class="Down"></path><path d="M1378 698L1377 1132" stroke-width="10" stroke="url(#SvgjsLinearGradient1062)" stroke-linecap="round" class="Up"></path><path d="M1395 828L1394 70" stroke-width="6" stroke="url(#SvgjsLinearGradient1062)" stroke-linecap="round" class="Up"></path><path d="M1142 664L1141 1449" stroke-width="8" stroke="url(#SvgjsLinearGradient1062)" stroke-linecap="round" class="Up"></path><path d="M425 337L424 633" stroke-width="6" stroke="url(#SvgjsLinearGradient1062)" stroke-linecap="round" class="Up"></path><path d="M586 527L585 1239" stroke-width="10" stroke="url(#SvgjsLinearGradient1063)" stroke-linecap="round" class="Down"></path><path d="M315 199L314 898" stroke-width="10" stroke="url(#SvgjsLinearGradient1063)" stroke-linecap="round" class="Down"></path><path d="M532 678L531 253" stroke-width="6" stroke="url(#SvgjsLinearGradient1063)" stroke-linecap="round" class="Down"></path><path d="M1246 558L1245 847" stroke-width="6" stroke="url(#SvgjsLinearGradient1062)" stroke-linecap="round" class="Up"></path><path d="M1909 830L1908 1342" stroke-width="6" stroke="url(#SvgjsLinearGradient1063)" stroke-linecap="round" class="Down"></path><path d="M638 775L637 1478" stroke-width="8" stroke="url(#SvgjsLinearGradient1063)" stroke-linecap="round" class="Down"></path><path d="M231 574L230 948" stroke-width="6" stroke="url(#SvgjsLinearGradient1062)" stroke-linecap="round" class="Up"></path><path d="M1265 156L1264 739" stroke-width="8" stroke="url(#SvgjsLinearGradient1062)" stroke-linecap="round" class="Up"></path><path d="M1703 1029L1702 472" stroke-width="8" stroke="url(#SvgjsLinearGradient1062)" stroke-linecap="round" class="Up"></path><path d="M43 979L42 449" stroke-width="10" stroke="url(#SvgjsLinearGradient1062)" stroke-linecap="round" class="Up"></path><path d="M303 962L302 1382" stroke-width="6" stroke="url(#SvgjsLinearGradient1063)" stroke-linecap="round" class="Down"></path><path d="M559 893L558 203" stroke-width="10" stroke="url(#SvgjsLinearGradient1063)" stroke-linecap="round" class="Down"></path><path d="M1498 201L1497 -254" stroke-width="8" stroke="url(#SvgjsLinearGradient1062)" stroke-linecap="round" class="Up"></path><path d="M1832 1017L1831 1655" stroke-width="10" stroke="url(#SvgjsLinearGradient1062)" stroke-linecap="round" class="Up"></path><path d="M853 1019L852 1559" stroke-width="10" stroke="url(#SvgjsLinearGradient1063)" stroke-linecap="round" class="Down"></path><path d="M484 16L483 -433" stroke-width="10" stroke="url(#SvgjsLinearGradient1063)" stroke-linecap="round" class="Down"></path><path d="M1179 1077L1178 466" stroke-width="8" stroke="url(#SvgjsLinearGradient1062)" stroke-linecap="round" class="Up"></path><path d="M284 817L283 1395" stroke-width="6" stroke="url(#SvgjsLinearGradient1063)" stroke-linecap="round" class="Down"></path><path d="M866 241L865 -69" stroke-width="10" stroke="url(#SvgjsLinearGradient1063)" stroke-linecap="round" class="Down"></path><path d="M1534 482L1533 101" stroke-width="6" stroke="url(#SvgjsLinearGradient1063)" stroke-linecap="round" class="Down"></path><path d="M1708 202L1707 538" stroke-width="8" stroke="url(#SvgjsLinearGradient1063)" stroke-linecap="round" class="Down"></path><path d="M538 12L537 424" stroke-width="6" stroke="url(#SvgjsLinearGradient1062)" stroke-linecap="round" class="Up"></path><path d="M555 82L554 524" stroke-width="6" stroke="url(#SvgjsLinearGradient1063)" stroke-linecap="round" class="Down"></path><path d="M890 890L889 1548" stroke-width="8" stroke="url(#SvgjsLinearGradient1062)" stroke-linecap="round" class="Up"></path><path d="M696 404L695 -128" stroke-width="8" stroke="url(#SvgjsLinearGradient1063)" stroke-linecap="round" class="Down"></path><path d="M1496 230L1495 585" stroke-width="6" stroke="url(#SvgjsLinearGradient1063)" stroke-linecap="round" class="Down"></path><path d="M1524 73L1523 -288" stroke-width="6" stroke="url(#SvgjsLinearGradient1062)" stroke-linecap="round" class="Up"></path><path d="M77 747L76 349" stroke-width="6" stroke="url(#SvgjsLinearGradient1062)" stroke-linecap="round" class="Up"></path><path d="M1689 1058L1688 1489" stroke-width="10" stroke="url(#SvgjsLinearGradient1063)" stroke-linecap="round" class="Down"></path><path d="M1355 839L1354 1206" stroke-width="6" stroke="url(#SvgjsLinearGradient1062)" stroke-linecap="round" class="Up"></path><path d="M1297 870L1296 191" stroke-width="10" stroke="url(#SvgjsLinearGradient1063)" stroke-linecap="round" class="Down"></path><path d="M1554 987L1553 1691" stroke-width="10" stroke="url(#SvgjsLinearGradient1062)" stroke-linecap="round" class="Up"></path><path d="M975 655L974 935" stroke-width="6" stroke="url(#SvgjsLinearGradient1063)" stroke-linecap="round" class="Down"></path><path d="M1009 10L1008 284" stroke-width="8" stroke="url(#SvgjsLinearGradient1063)" stroke-linecap="round" class="Down"></path><path d="M525 543L524 1348" stroke-width="10" stroke="url(#SvgjsLinearGradient1063)" stroke-linecap="round" class="Down"></path></g><defs><mask id="SvgjsMask1061"><rect width="1920" height="1080" fill="#ffffff"></rect></mask><linearGradient x1="0%" y1="100%" x2="0%" y2="0%" id="SvgjsLinearGradient1062"><stop stop-color="rgba(28, 83, 142, 0)" offset="0"></stop><stop stop-color="#1c538e" offset="1"></stop></linearGradient><linearGradient x1="0%" y1="0%" x2="0%" y2="100%" id="SvgjsLinearGradient1063"><stop stop-color="rgba(28, 83, 142, 0)" offset="0"></stop><stop stop-color="#1c538e" offset="1"></stop></linearGradient></defs></svg>